<svg width="24" height="24" viewBox="0 0 24 24" fill="none" xmlns="http://www.w3.org/2000/svg">
<path fill-rule="evenodd" clip-rule="evenodd" d="M23 5V19H21V5H23ZM19 5V19H17V5H19ZM15 6V18C15 18.55 14.55 19 14 19H2C1.45 19 1 18.55 1 18V6C1 5.45 1.45 5 2 5H14C14.55 5 15 5.45 15 6ZM13 7H3V17H13V7ZM6.05 9.94023C6.05 8.86328 6.92305 7.99023 8 7.99023C9.07696 7.99023 9.95 8.86328 9.95 9.94023C9.95 11.0172 9.07696 11.8902 8 11.8902C6.92305 11.8902 6.05 11.0172 6.05 9.94023ZM11.89 16.0004H4.11V15.3504C4.11 14.0504 6.7 13.4004 8 13.4004C9.3 13.4004 11.89 14.0504 11.89 15.3504V16.0004Z" fill="#EEEEEE"/>
</svg>
